<?xml version="1.0" encoding="UTF-8"?>
<svg width="797px" height="446px" viewBox="0 0 797 446" version="1.1" xmlns="http://www.w3.org/2000/svg" xmlns:xlink="http://www.w3.org/1999/xlink">
    <!-- Generator: Sketch 53.1 (72631) - https://sketchapp.com -->
    <title>Logo</title>
    <desc>Created with Sketch.</desc>
    <g id="Logo" stroke="none" stroke-width="1" fill="none" fill-rule="evenodd">
        <rect id="Rectangle" fill="#0347EB" x="40" y="40" width="757" height="406"></rect>
        <rect id="Rectangle" stroke="#0347EB" stroke-width="10" fill="#F26A2D" x="5" y="5" width="747" height="396"></rect>
        <path d="M76.5681293,140.741483 C76.8083153,147.715466 78.6296982,152.965914 82.0323326,156.492986 C85.434967,160.020058 89.7382342,161.783567 94.9422633,161.783567 C98.0646807,161.783567 100.926854,161.32265 103.528868,160.400802 C106.130883,159.478953 108.912995,158.056122 111.875289,156.132265 L116.558891,162.865731 C113.596598,165.190392 110.21403,166.993982 106.411085,168.276553 C102.608141,169.559125 98.7852386,170.200401 94.9422633,170.200401 C85.8151969,170.200401 78.7098022,167.214459 73.6258661,161.242485 C68.5419299,155.270511 66,147.274599 66,137.254509 C66,130.921812 67.120851,125.250526 69.3625866,120.240481 C71.6043222,115.230436 74.8067536,111.302619 78.9699769,108.456914 C83.1332002,105.611208 87.9768777,104.188377 93.5011547,104.188377 C101.507353,104.188377 107.81214,106.97392 112.415704,112.54509 C117.019269,118.11626 119.321016,125.711375 119.321016,135.330661 C119.321016,137.174358 119.240955,138.977947 119.080831,140.741483 L76.5681293,140.741483 Z M93.6212471,112.48497 C88.737466,112.48497 84.7744571,114.228439 81.7321016,117.715431 C78.6897461,121.202422 76.9684393,126.312592 76.5681293,133.046092 L109.473441,133.046092 C109.393379,126.392752 107.952285,121.302623 105.150115,117.775551 C102.347946,114.248479 98.5050283,112.48497 93.6212471,112.48497 Z M193.418014,105.511022 L170.360277,168.877756 L158.711316,168.877756 L135.773672,105.511022 L146.581986,105.511022 L164.836028,159.739479 L182.849885,105.511022 L193.418014,105.511022 Z M220.678984,140.741483 C220.91917,147.715466 222.740553,152.965914 226.143187,156.492986 C229.545821,160.020058 233.849089,161.783567 239.053118,161.783567 C242.175535,161.783567 245.037708,161.32265 247.639723,160.400802 C250.241737,159.478953 253.02385,158.056122 255.986143,156.132265 L260.669746,162.865731 C257.707452,165.190392 254.324884,166.993982 250.52194,168.276553 C246.718996,169.559125 242.896093,170.200401 239.053118,170.200401 C229.926051,170.200401 222.820657,167.214459 217.736721,161.242485 C212.652784,155.270511 210.110855,147.274599 210.110855,137.254509 C210.110855,130.921812 211.231705,125.250526 213.473441,120.240481 C215.715177,115.230436 218.917608,111.302619 223.080831,108.456914 C227.244055,105.611208 232.087732,104.188377 237.612009,104.188377 C245.618208,104.188377 251.922995,106.97392 256.526559,112.54509 C261.130123,118.11626 263.431871,125.711375 263.431871,135.330661 C263.431871,137.174358 263.35181,138.977947 263.191686,140.741483 L220.678984,140.741483 Z M237.732102,112.48497 C232.84832,112.48497 228.885312,114.228439 225.842956,117.715431 C222.800601,121.202422 221.079294,126.312592 220.678984,133.046092 L253.584296,133.046092 C253.504234,126.392752 252.063139,121.302623 249.26097,117.775551 C246.4588,114.248479 242.615883,112.48497 237.732102,112.48497 Z M284.688222,105.511022 L293.334873,105.511022 L294.17552,114.408818 C296.657441,111.202389 299.799827,108.697404 303.602771,106.893788 C307.405716,105.090171 311.228618,104.188377 315.071594,104.188377 C326.920767,104.188377 332.845266,110.440819 332.845266,122.945892 L332.845266,168.877756 L322.757506,168.877756 L322.757506,130.400802 C322.757506,125.671319 322.497308,122.064141 321.976905,119.579158 C321.456502,117.094176 320.435727,115.250507 318.91455,114.048096 C317.393372,112.845685 315.071609,112.244489 311.949192,112.244489 C308.506526,112.244489 305.264064,113.286563 302.221709,115.370741 C299.179354,117.45492 296.697469,119.939865 294.775982,122.825651 L294.775982,168.877756 L284.688222,168.877756 L284.688222,105.511022 Z M407.062356,165.631263 C404.900682,167.074156 402.278691,168.196389 399.196305,168.997996 C396.113918,169.799603 393.051593,170.200401 390.009238,170.200401 C383.364093,170.200401 378.160142,168.456931 374.397229,164.96994 C370.634315,161.482948 368.752887,156.893816 368.752887,151.202405 L368.752887,113.446894 L354.221709,113.446894 L354.221709,105.511022 L368.752887,105.511022 L368.752887,91.2024048 L378.840647,90 L378.840647,105.511022 L400.817552,105.511022 L399.496536,113.446894 L378.840647,113.446894 L378.840647,151.082164 C378.840647,154.689397 379.801376,157.374741 381.722864,159.138277 C383.644351,160.901812 386.726692,161.783567 390.969977,161.783567 C395.293324,161.783567 399.336394,160.781573 403.099307,158.777555 L407.062356,165.631263 Z M442.12933,159.619238 C442.12933,156.653292 443.150105,154.148307 445.191686,152.104208 C447.233267,150.06011 449.735166,149.038076 452.69746,149.038076 C455.739815,149.038076 458.26173,150.06011 460.263279,152.104208 C462.264829,154.148307 463.265589,156.653292 463.265589,159.619238 C463.265589,162.665346 462.264829,165.190371 460.263279,167.194389 C458.26173,169.198407 455.739815,170.200401 452.69746,170.200401 C449.735166,170.200401 447.233267,169.178367 445.191686,167.134269 C443.150105,165.09017 442.12933,162.585185 442.12933,159.619238 Z M108.152425,313.166333 L108.152425,273.847695 L76.9284065,273.847695 L76.9284065,313.166333 L66.4803695,313.166333 L66.4803695,230.320641 L76.9284065,230.320641 L76.9284065,265.310621 L108.152425,265.310621 L108.152425,230.320641 L118.600462,230.320641 L118.600462,313.166333 L108.152425,313.166333 Z M185.972286,299.338677 C185.972286,301.82366 186.37259,303.647289 187.17321,304.809619 C187.97383,305.97195 189.294833,306.833665 191.136259,307.39479 L188.614319,314.609218 C182.449546,313.807611 178.606628,310.801629 177.08545,305.591182 C174.843715,308.476968 172.021572,310.681355 168.618938,312.204409 C165.216303,313.727463 161.433431,314.488978 157.270208,314.488978 C150.945311,314.488978 145.961527,312.725469 142.318707,309.198397 C138.675886,305.671325 136.854503,300.941913 136.854503,295.01002 C136.854503,288.517002 139.396433,283.507032 144.48037,279.97996 C149.564306,276.452888 156.869852,274.689379 166.397229,274.689379 L175.764434,274.689379 L175.764434,269.519038 C175.764434,265.030038 174.483462,261.803617 171.921478,259.839679 C169.359495,257.875742 165.636668,256.893788 160.752887,256.893788 C155.949168,256.893788 150.465004,257.975941 144.300231,260.140281 L141.538106,252.44489 C148.983871,249.799586 155.909129,248.476954 162.314088,248.476954 C170.000038,248.476954 175.864491,250.280543 179.907621,253.887776 C183.950752,257.495008 185.972286,262.504978 185.972286,268.917836 L185.972286,299.338677 Z M159.792148,306.913828 C162.914565,306.913828 165.89683,306.112232 168.73903,304.509018 C171.581231,302.905804 173.923008,300.701417 175.764434,297.895792 L175.764434,281.663327 L166.637413,281.663327 C159.912207,281.663327 155.068529,282.78556 152.106236,285.03006 C149.143942,287.27456 147.662818,290.561101 147.662818,294.88978 C147.662818,302.905852 151.705887,306.913828 159.792148,306.913828 Z M212.632794,249.799599 L221.279446,249.799599 L222.120092,258.697395 C224.602014,255.490966 227.7444,252.985981 231.547344,251.182365 C235.350288,249.378748 239.173191,248.476954 243.016166,248.476954 C254.86534,248.476954 260.789838,254.729396 260.789838,267.234469 L260.789838,313.166333 L250.702079,313.166333 L250.702079,274.689379 C250.702079,269.959896 250.441881,266.352718 249.921478,263.867735 C249.401075,261.382753 248.3803,259.539084 246.859122,258.336673 C245.337945,257.134263 243.016182,256.533066 239.893764,256.533066 C236.451099,256.533066 233.208637,257.57514 230.166282,259.659319 C227.123926,261.743497 224.642042,264.228442 222.720554,267.114228 L222.720554,313.166333 L212.632794,313.166333 L212.632794,249.799599 Z M332.725173,224.308617 L332.725173,313.166333 L323.838337,313.166333 L322.877598,304.869739 C320.555801,308.076168 317.873764,310.480954 314.831409,312.084168 C311.789053,313.687383 308.506561,314.488978 304.983834,314.488978 C296.977635,314.488978 290.953061,311.563156 286.909931,305.711423 C282.8668,299.85969 280.845266,291.803659 280.845266,281.543086 C280.845266,275.210389 281.846025,269.539103 283.847575,264.529058 C285.849125,259.519013 288.711298,255.591197 292.43418,252.745491 C296.157062,249.899785 300.54039,248.476954 305.584296,248.476954 C312.549688,248.476954 318.234004,251.001979 322.637413,256.052104 L322.637413,223.106212 L332.725173,224.308617 Z M308.226328,256.653307 C302.942237,256.653307 298.879152,258.737454 296.036952,262.905812 C293.194751,267.074169 291.773672,273.286532 291.773672,281.543086 C291.773672,289.71948 293.07466,295.911803 295.676674,300.12024 C298.278689,304.328678 302.061561,306.432866 307.025404,306.432866 C313.030053,306.432866 318.234004,303.066166 322.637413,296.332665 L322.637413,264.829659 C320.87605,262.184356 318.754439,260.160328 316.272517,258.757515 C313.790596,257.354702 311.108559,256.653307 308.226328,256.653307 Z M381.482679,297.53507 C381.482679,303.226481 384.965323,306.072144 391.930716,306.072144 C395.213257,306.072144 398.735932,305.350709 402.498845,303.907816 L405.140878,311.242485 C401.137778,313.406824 396.133979,314.488978 390.12933,314.488978 C384.444929,314.488978 379.90148,312.925867 376.498845,309.799599 C373.096211,306.673331 371.394919,302.424877 371.394919,297.054108 L371.394919,232.364729 L351.939954,232.364729 L351.939954,224.308617 L381.482679,224.308617 L381.482679,297.53507 Z M436.845266,285.03006 C437.085452,292.004043 438.906834,297.254491 442.309469,300.781563 C445.712103,304.308635 450.01537,306.072144 455.2194,306.072144 C458.341817,306.072144 461.20399,305.611227 463.806005,304.689379 C466.408019,303.76753 469.190131,302.344699 472.152425,300.420842 L476.836028,307.154309 C473.873734,309.47897 470.491166,311.282559 466.688222,312.56513 C462.885277,313.847702 459.062375,314.488978 455.2194,314.488978 C446.092333,314.488978 438.986938,311.503036 433.903002,305.531062 C428.819066,299.559088 426.277136,291.563176 426.277136,281.543086 C426.277136,275.210389 427.397987,269.539103 429.639723,264.529058 C431.881458,259.519013 435.08389,255.591197 439.247113,252.745491 C443.410336,249.899785 448.254014,248.476954 453.778291,248.476954 C461.78449,248.476954 468.089276,251.262497 472.692841,256.833667 C477.296405,262.404837 479.598152,269.999952 479.598152,279.619238 C479.598152,281.462935 479.518092,283.266524 479.357968,285.03006 L436.845266,285.03006 Z M453.898383,256.773547 C449.014602,256.773547 445.051593,258.517017 442.009238,262.004008 C438.966882,265.490999 437.245576,270.601169 436.845266,277.334669 L469.750577,277.334669 C469.670515,270.681329 468.229421,265.5912 465.427252,262.064128 C462.625082,258.537057 458.782165,256.773547 453.898383,256.773547 Z M543.60739,248.476954 C546.169374,248.476954 549.131623,248.917831 552.494226,249.799599 L551.053118,271.322645 L542.886836,271.322645 L542.886836,257.735471 L542.286374,257.735471 C532.518812,257.735471 525.593554,264.709349 521.510393,278.657315 L521.510393,305.350701 L534.360277,305.350701 L534.360277,313.166333 L501.454965,313.166333 L501.454965,305.350701 L511.422633,305.350701 L511.422633,257.61523 L501.454965,257.61523 L501.454965,249.799599 L518.988453,249.799599 L520.909931,264.829659 C523.471914,259.37873 526.534239,255.290595 530.096998,252.56513 C533.659756,249.839666 538.163175,248.476954 543.60739,248.476954 Z M586.48037,271.082164 C586.48037,279.258558 587.401069,286.372715 589.242494,292.42485 C591.08392,298.476984 593.826002,303.967911 597.468822,308.897796 C601.111643,313.82768 605.975335,319.018009 612.060046,324.468938 L606.896074,330 C599.850619,324.308589 594.106258,318.697422 589.662818,313.166333 C585.219377,307.635243 581.816794,301.46296 579.454965,294.649299 C577.093137,287.835637 575.91224,279.980004 575.91224,271.082164 C575.91224,262.184324 577.093137,254.328691 579.454965,247.51503 C581.816794,240.701369 585.219377,234.529086 589.662818,228.997996 C594.106258,223.466906 599.850619,217.85574 606.896074,212.164329 L612.060046,217.695391 C605.895273,223.14632 600.99155,228.316609 597.34873,233.206413 C593.705909,238.096217 590.983843,243.567104 589.182448,249.619238 C587.381053,255.671373 586.48037,262.82561 586.48037,271.082164 Z M679.431871,271.082164 C679.431871,262.82561 678.531187,255.671373 676.729792,249.619238 C674.928397,243.567104 672.206331,238.096217 668.56351,233.206413 C664.92069,228.316609 660.016967,223.14632 653.852194,217.695391 L659.016166,212.164329 C666.061621,217.85574 671.805982,223.466906 676.249423,228.997996 C680.692863,234.529086 684.095446,240.701369 686.457275,247.51503 C688.819103,254.328691 690,262.184324 690,271.082164 C690,279.980004 688.819103,287.835637 686.457275,294.649299 C684.095446,301.46296 680.692863,307.635243 676.249423,313.166333 C671.805982,318.697422 666.061621,324.308589 659.016166,330 L653.852194,324.468938 C659.936905,319.018009 664.800598,313.82768 668.443418,308.897796 C672.086238,303.967911 674.82832,298.476984 676.669746,292.42485 C678.511172,286.372715 679.431871,279.258558 679.431871,271.082164 Z" id="event.Handler()" fill="#FCDFE3" fill-rule="nonzero"></path>
    </g>
</svg>