<svg id="Layer_1" data-name="Layer 1" xmlns="http://www.w3.org/2000/svg" viewBox="0 0 515.76 161.09">
  <defs>
    <style>
      .cls-1 {
        fill: #F26A2D;
      }
    </style>
  </defs>
  <title>logo-black</title>
  <path class="cls-1" d="M222.32,94.94a45.41,45.41,0,0,1-2.25,12.68,44.62,44.62,0,0,1-6.27,12.19,59.78,59.78,0,0,1-10.87,11.3A74.45,74.45,0,0,1,187,140.83q-21.56,10-41.26,4.43t-32.92-28.47q-1.43,4.85-2.54,10.07a83,83,0,0,1-2.8,10.06,32.68,32.68,0,0,1-4.68,8.84A20.44,20.44,0,0,1,94.87,152q-5.61,2.59-10,1.5a18.3,18.3,0,0,1-7.69-3.9,26.81,26.81,0,0,1-5.49-6.49,67.35,67.35,0,0,1-3.52-6.48Q63.35,126.33,59,115.89T50.26,95.75Q44.48,83.25,39.91,74.5a56.72,56.72,0,0,0-9.46-13.68,20,20,0,0,0-10.87-6q-6-1-14.46,2.11l-1.72.8a7.29,7.29,0,0,0-1.84,1.11.42.42,0,0,1-.63-.23,12.3,12.3,0,0,1-.84-3.8,19.86,19.86,0,0,1,.27-5.36A14.49,14.49,0,0,1,2.64,44a11.89,11.89,0,0,1,5-4.15q16.17-7.48,27.66-1T56.57,66.4q3.59,7.76,6.72,16.52t6.11,17.45q3,8.7,6,17.13t6.37,15.76a24.66,24.66,0,0,0,4.05,6.5,3.72,3.72,0,0,0,4.65,1q3.23-1.49,6-5.93a72.24,72.24,0,0,0,5.08-9.67q2.29-5.24,4-10.08a60.14,60.14,0,0,1,2.93-7.24l-3.55-12.49q-2.31-8.09-5-16.67T94.84,62.58A108,108,0,0,0,90.71,51.4q-.5-1.08-2.67-4.92a23.55,23.55,0,0,0-5.9-6.82,2.94,2.94,0,0,0-1.41-.79,1.57,1.57,0,0,1-1.1-.67q-.6-1.29,2-2.49a15.39,15.39,0,0,1,8-1.62,13.88,13.88,0,0,1,6.88,2.71,24.19,24.19,0,0,1,5.71,6.13A62.56,62.56,0,0,1,107,51.47,123,123,0,0,1,111.85,64q2.38,7.14,4.56,14.38t4.36,13.95A103.48,103.48,0,0,0,125,103.56a65.25,65.25,0,0,0,8.4,13.65,35.59,35.59,0,0,0,11.29,9.43A31.62,31.62,0,0,0,159,130.1q7.91.13,17.18-4.15,10.35-4.78,16.08-9.92a49,49,0,0,0,9-10.46,51.5,51.5,0,0,0,5.11-10.74A83.7,83.7,0,0,1,211,84a2.48,2.48,0,0,1,2.21-1.15,5.82,5.82,0,0,1,3.53,1.12,12,12,0,0,1,3.49,3.88A17.4,17.4,0,0,1,222.32,94.94Z"
    transform="translate(0)" />
  <path class="cls-1" d="M119.73,71q2.5-.74,5.66-1.8A24.58,24.58,0,0,1,131.71,68a11.36,11.36,0,0,1,5.93,1.22q2.77,1.41,4.28,5.67a51,51,0,0,1,7.21-9.94,22.27,22.27,0,0,1,10.18-6.6q.68-.2,2.08-.49a6.21,6.21,0,0,1,3.18.3,7.44,7.44,0,0,1,3.47,2.94,20,20,0,0,1,2.71,7.49q1.07,6.13,2.37,12.18,1.09,5.38,2.69,11.59T179,104a60,60,0,0,0,3.61,9.7,60.37,60.37,0,0,0,3.15,5.63,13.65,13.65,0,0,0,2.34,2.9,3.68,3.68,0,0,1,1.26,1.73q.47,1.59-1.58,2.2a12.88,12.88,0,0,1-5.23.31,17.1,17.1,0,0,1-6.05-2,20.26,20.26,0,0,1-5.77-4.86,21.73,21.73,0,0,1-4.09-8L160.87,92q-2.16-7.29-3.46-10.86a25,25,0,0,0-2-4.5q-.64-.92-1.33-.72a5.86,5.86,0,0,0-2.6,2.5q-1.46,2.17-2.91,4.82t-2.74,5.39q-1.3,2.74-1.87,4.14.72,7.47,1.8,14.45a88.52,88.52,0,0,0,1.68,9,15.61,15.61,0,0,0,1.18,2.75,7.09,7.09,0,0,0,2.39,2.64,10.12,10.12,0,0,1-4.75,2.77,12.55,12.55,0,0,1-5.27.2,8.8,8.8,0,0,1-4.72-2.57,11.1,11.1,0,0,1-2.89-5.58q-.85-3.71-2.12-10.52t-3-14a130.84,130.84,0,0,0-3.88-13.09Q122.3,73,119.73,71Z"
    transform="translate(0)" />
  <path class="cls-1" d="M193.79,51.76c1.06-.34,2.06-.62,3-.86s1.93-.44,3-.63a36.23,36.23,0,0,1,7.15-.48q-.36-3.55-1.18-10.64t-2.2-14.56q-1.38-7.47-3.2-14t-4.4-9A53.31,53.31,0,0,1,206.53.62a23,23,0,0,1,9.28,2.9,11.89,11.89,0,0,1,2.62,2.69q1,1.52,2.05,3.63A17.87,17.87,0,0,1,222.06,15q.08.47.26,5.13T222.74,32q.24,7.18.46,15.7t.66,16.87q.44,8.36,1,15.48t1.3,11.34q.16.94,1.39,6.15a31.32,31.32,0,0,0,4.17,9.78,3.71,3.71,0,0,0,1.17,1.25c.55.39.85.74.9,1.05.18,1.09-.74,1.81-2.77,2.15a11.8,11.8,0,0,1-8.75-1.9,24.09,24.09,0,0,1-6.6-6.36,53.15,53.15,0,0,1-5.31,2.09,40,40,0,0,1-6.13,1.51Q193,109,185.74,103.56t-9.17-16.64a35.8,35.8,0,0,1-.09-11.3,39.18,39.18,0,0,1,3.06-10.51,27,27,0,0,1,5.83-8.32A21.27,21.27,0,0,1,193.79,51.76Zm17.88,42a.69.69,0,0,1-.16.51,38.4,38.4,0,0,1-.32-4.76q-.24-2.85-.71-7.83t-1.38-13.25q-1.21-2.92-3.28-3.06a14.67,14.67,0,0,0-3,0,15,15,0,0,0-8,3.5A14.25,14.25,0,0,0,190.94,75a20.38,20.38,0,0,0-1,6.91,43.31,43.31,0,0,0,.49,5.82q1.37,8.2,5,10.24a10.84,10.84,0,0,0,7.34,1.42A23.82,23.82,0,0,0,208,98a10.25,10.25,0,0,0,2.63-1.53,2.63,2.63,0,0,0,1-1.48A4,4,0,0,0,211.67,93.79Z"
    transform="translate(0)" />
  <path class="cls-1" d="M274.56,62a14.45,14.45,0,0,1-1.08,7.18A22,22,0,0,1,269,75.91,23,23,0,0,1,261.68,81,26.29,26.29,0,0,1,252,83.25a20.19,20.19,0,0,1-6.45-.64,13.22,13.22,0,0,0,2.51,5.23,12.88,12.88,0,0,0,3.35,2.93A10,10,0,0,0,254.83,92l2.88.46a9.84,9.84,0,0,0,5.89-1.11,24.36,24.36,0,0,0,4.49-3.19,25.92,25.92,0,0,0,3.17-3.36c.82-1.07,1.47-1.62,1.94-1.64.63,0,1,.51,1,1.62A12.2,12.2,0,0,1,272.43,92a18.63,18.63,0,0,1-5.33,5.48,26.76,26.76,0,0,1-7.68,3.58,30.75,30.75,0,0,1-8.86,1.25q-10.22,0-16.21-5.88t-7-16.31q-.68-14.23,6.36-23.72t19.85-10.1q8.77-.42,14.65,3.11T274.56,62Zm-29.9,16.17q2.33-.82,4.9-1.9a19.21,19.21,0,0,0,4.74-2.84,15.19,15.19,0,0,0,3.5-4A9.66,9.66,0,0,0,259,63.9a10.83,10.83,0,0,0-1.82-5.74,4.89,4.89,0,0,0-4.51-2.28q-4,.19-6.43,4.71t-1.92,14.48a10,10,0,0,0,.2,1.65A8.76,8.76,0,0,1,244.66,78.14Z"
    transform="translate(0)" />
  <path class="cls-1" d="M300.57,85.9q7.19,6.65,11.12,10.35t6.73,6.38q2.8,2.68,5.74,5.13l7.91,6.57q1.58,1.29-.11,3.56a13.88,13.88,0,0,1-5.13,4,17.83,17.83,0,0,1-7.49,1.78,8.63,8.63,0,0,1-6.73-2.69,25.15,25.15,0,0,1-5.13-5.44q-2.41-3.37-5.12-7.47t-5.86-8.94A105,105,0,0,0,288.95,89q-1.2.16-1.91,2a14.73,14.73,0,0,0-.87,4.35,22.74,22.74,0,0,0,.17,4.77,4.29,4.29,0,0,0,1.47,3.07,7.75,7.75,0,0,1-1.45.38,23.28,23.28,0,0,1-4.28,0q-3.08-.2-6.21-3.37A9.85,9.85,0,0,1,273,92.23q.46-3.54,1.89-10.95t2.53-15.43q1.1-8,1.45-15.26T277.3,40.15c.63,0,1.5.06,2.61,0s2.3,0,3.56.11q2.84.18,5.44.58a11.21,11.21,0,0,1,4.42,1.59,6.15,6.15,0,0,1,2.53,3.25,8.28,8.28,0,0,1-.46,5.33,45.28,45.28,0,0,1,8.48-2.43,34.2,34.2,0,0,1,8.36-.54q6.4.41,9.77,3.6T325,61.75a28.86,28.86,0,0,1-1.26,6.7,18.49,18.49,0,0,1-3.62,6.43,28.48,28.48,0,0,1-7.27,5.84A59,59,0,0,1,300.57,85.9Zm-11-6.18q-.14,2.13,1.52,2.24a11,11,0,0,0,4.59-1.14,29.7,29.7,0,0,0,5.93-3.43,28.83,28.83,0,0,0,5.32-5,10,10,0,0,0,2.5-5.67q.24-3.79-1.48-4.74a10.39,10.39,0,0,0-4.33-1.11q-5-.32-8.24,4.23T289.54,79.72Z"
    transform="translate(0)" />
  <path class="cls-1" d="M337.39,0a49.8,49.8,0,0,1,8.23,2,22.43,22.43,0,0,1,7.1,3.84A15.11,15.11,0,0,1,357.3,12a17,17,0,0,1,.7,8.87q-.07.47-1.32,4.72t-3.15,10.45L349.27,50q-2.37,7.69-4.48,15.29t-3.72,14.21q-1.6,6.6-2.24,10.83-.18,1.18-.74,6.49a27.25,27.25,0,0,0,.83,10.34,9.31,9.31,0,0,0,1,1.59,2.05,2.05,0,0,1,.49,1.52q-.69,1.34-3.27.95a13,13,0,0,1-7.19-3.25,16.14,16.14,0,0,1-4.09-6.27,26.23,26.23,0,0,1-1.58-7.81,39.75,39.75,0,0,1,.39-8.11,216,216,0,0,1,4.32-21.32q2.64-10.28,4.95-20.75a195,195,0,0,0,3.46-21.21A112,112,0,0,0,337.39,0Z"
    transform="translate(0)" />
  <path class="cls-1" d="M371.71,102a25.46,25.46,0,0,1-10,5.94,21.19,21.19,0,0,1-11.48.74,16.12,16.12,0,0,1-9.25-5.46q-3.46-4.17-2.12-10.2a15.44,15.44,0,0,1,3.45-6.78,23.07,23.07,0,0,1,6.37-5.16,26.42,26.42,0,0,1,18.2-2.54,7.55,7.55,0,0,1,1.92.67,6.41,6.41,0,0,0,1.69.62q1.16.26,1.52-1.37a5.31,5.31,0,0,0-1.38-5.29,13.86,13.86,0,0,0-5.39-3.14,26.17,26.17,0,0,0-6.89-1.28,39,39,0,0,0-5.85,0,1.6,1.6,0,0,1-1.78-.76,2.84,2.84,0,0,1-.44-2.41,21.16,21.16,0,0,1,1.41-4.19,10.46,10.46,0,0,1,2.75-3.65,10.19,10.19,0,0,1,4.61-2.14,16.84,16.84,0,0,1,7,.33,73.65,73.65,0,0,1,7.09,2.06,28.51,28.51,0,0,1,8.16,4.36,21.24,21.24,0,0,1,6.07,7.18q2.21,4.26.83,10.52-.7,2-2.13,7.43a93.61,93.61,0,0,0-2.26,11.3,62.82,62.82,0,0,0-.62,11.05q.19,5.15,2.49,6.88a6.59,6.59,0,0,1-.62,1.69q-.41.76-3.66,0a10.67,10.67,0,0,1-2.68-1.08,11.27,11.27,0,0,1-3.07-2.63A16.09,16.09,0,0,1,373,110,24.8,24.8,0,0,1,371.71,102Zm-15.12-7.49a5.18,5.18,0,0,0,.53,3.64,4.54,4.54,0,0,0,3.26,2.3,12.23,12.23,0,0,0,5.29-.29,11,11,0,0,0,5.4-2.94,6.91,6.91,0,0,1,.18-3,29.3,29.3,0,0,0,.59-3.76,29.65,29.65,0,0,0,.11-3.26c0-1-.35-1.54-1-1.67a8.75,8.75,0,0,0-4.43.23,17.73,17.73,0,0,0-4.47,2.05,16,16,0,0,0-3.6,3.09A8.36,8.36,0,0,0,356.59,94.55Z"
    transform="translate(0)" />
  <path class="cls-1" d="M397.75,62.54q2.47.85,5.65,1.83A24.6,24.6,0,0,1,409.26,67a11.35,11.35,0,0,1,4.12,4.44q1.43,2.76.18,7.1a51,51,0,0,1,11.65-3.88,22.28,22.28,0,0,1,12.12.55q.67.23,2,.81a6.21,6.21,0,0,1,2.42,2.09,7.43,7.43,0,0,1,1.11,4.41,20,20,0,0,1-2.15,7.67q-2.69,5.61-5.16,11.28-2.24,5-4.56,11t-4.19,11.37a60.1,60.1,0,0,0-2.71,10,60.73,60.73,0,0,0-.71,6.41,13.68,13.68,0,0,0,.22,3.72,3.67,3.67,0,0,1,0,2.14Q423,147.7,421,147a12.88,12.88,0,0,1-4.44-2.79,17.09,17.09,0,0,1-3.73-5.19,20.24,20.24,0,0,1-1.87-7.31,21.73,21.73,0,0,1,1.3-8.85l6.68-19.3q2.49-7.18,3.5-10.85a25,25,0,0,0,1-4.79q0-1.13-.66-1.36a5.86,5.86,0,0,0-3.57.52q-2.45.91-5.17,2.23t-5.37,2.79q-2.65,1.47-3.93,2.28-3.76,6.49-6.95,12.8a88.33,88.33,0,0,0-3.89,8.33,15.62,15.62,0,0,0-.63,2.92,7.1,7.1,0,0,0,.41,3.53,10.11,10.11,0,0,1-5.48-.51,12.53,12.53,0,0,1-4.4-2.91,8.79,8.79,0,0,1-2.35-4.83,11.1,11.1,0,0,1,.9-6.22q1.46-3.51,4.39-9.79t5.67-13.12A130.77,130.77,0,0,0,397,71.69Q398.68,65.63,397.75,62.54Z"
    transform="translate(0)" />
  <path class="cls-1" d="M469.21,90q1.59.52,2.93,1T475,92.27A36.24,36.24,0,0,1,481,96q1.78-3.1,5.24-9.34T493,73.6q3.23-6.88,5.58-13.27t1.67-9.89a53.29,53.29,0,0,1,9.12,5.4,23,23,0,0,1,5.85,7.76,11.88,11.88,0,0,1,.56,3.71q-.09,1.81-.44,4.15a17.83,17.83,0,0,1-1.71,5.11q-.21.43-2.78,4.32t-6.56,9.88q-4,6-8.76,13t-9.29,14.09q-4.51,7-8.18,13.18t-5.55,10q-.42.85-2.45,5.81a31.34,31.34,0,0,0-2.31,10.37,3.72,3.72,0,0,0,.23,1.7,1.94,1.94,0,0,1,.12,1.38q-.73,1.49-3.5.13a11.8,11.8,0,0,1-6-6.64,24.11,24.11,0,0,1-1.67-9,52.91,52.91,0,0,1-5.53-1.39,40,40,0,0,1-5.86-2.34q-10.24-5-13-13.65t2.24-18.87a35.8,35.8,0,0,1,6.51-9.24,39.16,39.16,0,0,1,8.6-6.76,27,27,0,0,1,9.58-3.37A21.26,21.26,0,0,1,469.21,90Zm-9.95,44.58a.69.69,0,0,1-.42.32,38.13,38.13,0,0,1,2.52-4.06q1.46-2.46,4-6.78t6.6-11.58q.72-3.08-.88-4.4a14.73,14.73,0,0,0-2.46-1.73,15,15,0,0,0-8.51-1.79,14.25,14.25,0,0,0-6.72,2.66,20.37,20.37,0,0,0-4.85,5,43.25,43.25,0,0,0-3,5q-3.66,7.47-1.93,11.22a10.83,10.83,0,0,0,5.14,5.43,23.79,23.79,0,0,0,5.11,2,10.23,10.23,0,0,0,3,.29,2.62,2.62,0,0,0,1.64-.65A4,4,0,0,0,459.27,134.57Z"
    transform="translate(0)" />
</svg>